<?xml version="1.0" encoding="utf-8"?>
<!-- Generator: Adobe Illustrator 26.3.1, SVG Export Plug-In . SVG Version: 6.00 Build 0)  -->
<svg xmlns="http://www.w3.org/2000/svg" version="1.1" width="628" height="96"><svg xmlns:xlink="http://www.w3.org/1999/xlink" version="1.1" id="Ebene_1" x="0" y="0" viewBox="0 0 628.1 96.9" style="enable-background:new 0 0 628.1 96.9;" xml:space="preserve" width="628" height="96">
<style type="text/css">
	.st0{fill:#FFFFFF;}
	.st1{fill-rule:evenodd;clip-rule:evenodd;fill:#8A9ACA;}
	.st2{fill-rule:evenodd;clip-rule:evenodd;fill:#B3B3B3;}
</style>
<path class="st0" d="M328.5,87.5c-0.2,0.9-0.6,1.7-1.1,2.5c-0.7,1.1-1.6,2-2.7,2.7c-1,0.7-2.1,1.2-3.4,1.3c-0.9,0.2-1.9,0-2.7-0.5  c-0.7-0.4-1.1-1.1-1.2-1.9c-0.1-0.7,0-1.4,0.3-2c0.5-0.9,1.1-1.6,1.9-2.3c0.3-0.2,0.4-0.5,0.5-0.8c0-0.1-0.1-0.3-0.2-0.4  c-0.4-0.6-0.7-1.3-0.8-2.1c-0.1-1.1,0-2.3,0.5-3.4c0.5-1.2,1.3-2.2,2.3-2.9c1-0.8,2.2-1.3,3.5-1.5c0.6-0.1,1.3-0.1,1.9,0.2  c0.4,0.2,0.7,0.6,0.8,1.1c0,0.4,0,0.7-0.1,1.1c-0.2,0.7-0.6,1.4-0.9,2.1l-1.4,2.8c0,0.1-0.1,0.1-0.1,0.1c-0.4-0.1-0.7-0.3-1-0.5  c-0.3-0.1-0.5-0.3-0.6-0.6c0-0.3,0.3-1.1,1.1-2.3l0.4-0.6c0.2-0.3,0.4-0.6,0.4-1c0-0.1-0.1-0.3-0.2-0.4c-0.1-0.1-0.3-0.1-0.5-0.1  c-0.6,0.1-1.2,0.4-1.6,0.8c-0.6,0.5-1.1,1-1.5,1.7c-0.4,0.6-0.7,1.2-0.9,1.8c-0.2,0.5-0.2,1.1-0.1,1.6c0.2,0.9,0.6,1.7,1.3,2.3  c0.1,0.1,0.2,0.2,0.3,0.4c0,0.2-0.4,0.7-1.2,1.4c-0.7,0.5-1.2,1.1-1.7,1.7c-0.3,0.4-0.4,0.8-0.4,1.2c0,0.3,0.2,0.6,0.5,0.8  c0.4,0.2,0.8,0.3,1.2,0.2c1-0.1,1.9-0.6,2.7-1.2c1-0.9,1.9-2,2.5-3.2L328.5,87.5z"/>
<path class="st0" d="M332.3,83.8l1.9-0.3l-1.7,5.9c-0.1,0.2-0.1,0.4-0.1,0.6c0,0.1,0,0.1,0.1,0.1c0.1,0,0.1,0,0.2,0  c0.3,0,1.2-0.9,2.7-2.6l0.3,1.8c-0.8,0.9-1.6,1.7-2.6,2.4c-0.5,0.4-1.1,0.6-1.8,0.7c-0.3,0.1-0.6,0-0.8-0.1  c-0.2-0.1-0.3-0.3-0.4-0.5c0.1-1.1,0.3-2.1,0.8-3.1l-1.5,1.8l-0.3-1.9c1-1.1,2-2.2,2.8-3.5C332,84.7,332.2,84.2,332.3,83.8z   M333.9,79.4c0.3-0.1,0.6,0,0.8,0.2c0.2,0.2,0.4,0.4,0.4,0.7c0.1,0.4,0,0.9-0.3,1.2c-0.2,0.3-0.6,0.6-1,0.6c-0.3,0-0.5,0-0.8-0.2  c-0.2-0.2-0.4-0.4-0.4-0.7c-0.1-0.4,0-0.9,0.3-1.2C333.1,79.7,333.5,79.4,333.9,79.4L333.9,79.4z"/>
<path class="st0" d="M339.9,82.7l-1.6,5.8l0.2-0.3l1.1-1.5l0.7-0.9l0.8-1l0.2-0.2l0.5-0.6c1.2-1.4,2.2-2.1,2.9-2.2  c0.2,0,0.4,0,0.5,0.1c0.1,0.1,0.2,0.2,0.3,0.4c-0.2,1.3-0.5,2.5-0.9,3.7l-0.1,0.5l-0.4,1.3c0,0.1-0.1,0.3-0.1,0.4  c0,0.1,0,0.1,0.1,0.2c0.1,0,0.1,0.1,0.2,0c0.4-0.1,1.3-0.9,2.7-2.6l0.3,1.8c-0.7,0.9-1.6,1.7-2.5,2.3c-0.5,0.4-1.1,0.6-1.7,0.7  c-0.3,0.1-0.6,0-0.9-0.1c-0.2-0.1-0.4-0.3-0.4-0.6c0-0.8,0.2-1.5,0.5-2.2c0.2-0.4,0.3-0.8,0.4-1.2l0.2-0.8c0.1-0.4,0.2-0.8,0.3-1.2  l-0.1-0.1c-0.6,0.5-1.1,1.1-1.6,1.7l-0.5,0.6l-2.3,2.8c-0.5,0.6-1,1.1-1.5,1.5c-0.1,0.1-0.3,0.2-0.5,0.2c-0.1,0-0.3,0-0.4-0.1  c-0.1-0.1-0.2-0.2-0.2-0.3c0-0.5,0.1-0.9,0.2-1.4l0.1-0.5c0.1-0.3,0.2-0.7,0.3-1.2l-1.3,1.4l-0.3-1.9c0.9-0.9,1.7-1.8,2.4-2.8  c0.2-0.6,0.4-1.3,0.5-2L339.9,82.7z"/>
<path class="st0" d="M357.8,86.9c-0.4,0.6-0.8,1.2-1.3,1.7c-0.3,0.3-0.8,0.5-1.2,0.6c-0.6,0.1-1.1-0.2-1.5-0.6  c-0.6-0.6-0.9-1.4-1-2.2c-0.2-1.5,0.2-3,1.3-4.2c1.1-1.2,2.7-2,5-2.3c0.5-0.1,1-0.1,1.4-0.1c0.1,0.2,0.1,0.5,0.2,0.7  c0.1,0.2,0.1,0.4,0.2,0.6c0,0,0,0.1,0,0.1c0,0-0.1,0.1-0.2,0.1c-0.2,0-0.4,0-0.5,0c-0.4,0-0.8,0-1.2,0.1c-1.3,0.1-2.5,0.7-3.3,1.6  c-0.7,0.8-1,2-0.8,3.1c0,0.3,0.1,0.7,0.3,0.9c0.1,0.2,0.3,0.2,0.6,0.2c0.6-0.1,1.1-0.5,1.4-1c0.8-1,1.4-2.2,1.8-3.5l2-0.3  c-0.7,1.8-1.2,3.6-1.7,5.5c1.1-1.5,2.3-3,3.6-4.3l0.3,1.8l-1,1.1c-1.1,1.1-1.8,1.9-2.2,2.3s-0.8,1-1.4,1.7l-0.4,1.4  c-0.2,1.2-0.7,2.4-1.3,3.4c-0.2,0.4-0.6,0.6-1,0.7c-0.2,0-0.4,0-0.6-0.2c-0.2-0.1-0.3-0.4-0.3-0.6c-0.1-0.9,0.4-2.4,1.4-4.5  c0.4-0.8,0.8-1.6,1.1-2.4C357.6,88,357.7,87.4,357.8,86.9z"/>
<path class="st0" d="M365.8,79.1l1.9-0.3c-0.6,2.1-1.1,3.8-1.6,5.2l-0.4,1c0,0.1-0.1,0.3-0.1,0.4l0.1,0.1c0.2-0.1,0.3-0.2,0.5-0.4  l2.3-2.4c0.5-0.6,1.1-1.3,1.5-1.9c0.6-0.8,1.1-1.6,1.5-2.5l2-0.3l-0.2,0.7l-0.1,0.4l-0.8,2.5l0,0.3l-0.5,1.5  c-0.1,0.4-0.2,0.8-0.3,1.1c0,0,0,0.1,0.1,0.1c0.1,0,0.1,0,0.2,0c0.2,0,0.9-0.6,2-1.8l0.7-0.8l0.3,1.8l-0.4,0.4  c-0.7,0.8-1.4,1.4-2.2,2c-0.5,0.3-1,0.5-1.5,0.6c-0.3,0.1-0.6,0-0.9-0.1c-0.2-0.1-0.4-0.3-0.4-0.6c0-0.6,0.2-1.2,0.4-1.7  c0.2-0.6,0.4-1.2,0.5-2c-1,1.4-2.1,2.7-3.4,3.9c-0.7,0.7-1.6,1.2-2.6,1.5c-0.2,0-0.4,0-0.6-0.1c-0.2-0.1-0.3-0.2-0.3-0.4  c0-0.6,0.2-1.2,0.4-1.7l0.2-0.6c0.1-0.4,0.3-0.9,0.4-1.4c-0.5,0.8-1.1,1.6-1.8,2.3l-0.3-1.8c0.7-0.7,1.3-1.4,2-2.2l0.4-0.5  c0.2-0.2,0.3-0.5,0.5-0.8C365.5,80,365.7,79.5,365.8,79.1z"/>
<path class="st0" d="M378.5,74.3c0.3-2.3,0.7-3.8,1.1-4.5c0.2-0.4,0.5-0.6,0.9-0.7c0.2,0,0.3,0,0.4,0.1c0.1,0.1,0.2,0.3,0.2,0.5  c0,1.1-0.1,2.2-0.5,3.3l-0.3,1.1l1.3-0.2c0.1,0,0.1,0,0.2,0c0,0,0.1,0.1,0.1,0.1c0,0.2,0,0.4,0,0.6l-0.1,0.6c0,0.1-0.1,0.1-0.1,0.2  c-0.1,0.1-0.2,0.1-0.3,0.1l-1.3,0.2l-1.9,7.6c-0.1,0.2-0.1,0.4-0.1,0.5c0,0.1,0,0.1,0.1,0.1c0,0,0.1,0,0.1,0c0.2,0,0.3-0.1,0.4-0.2  c0.6-0.4,1.2-0.9,1.8-1.4c0.5-0.4,0.9-0.9,1.4-1.4l0.3,1.8c-1.9,1.9-3.6,3-5.1,3.2c-0.3,0-0.5,0-0.8-0.1c-0.2-0.1-0.3-0.3-0.4-0.5  c0-0.6,0.1-1.2,0.3-1.8l0.2-0.6c0.1-0.4,0.2-0.8,0.3-1.4c-0.2,0.2-0.3,0.4-0.5,0.6c-0.5,0.7-1,1.3-1.6,1.9l-0.3-1.9  c0.6-0.6,1.1-1.1,1.4-1.5c0.4-0.4,0.9-1.1,1.6-2c0.3-1.2,0.5-2.2,0.7-2.9l-1.6,0.2c-0.2,0.1-0.4,0-0.5-0.2c0-0.1,0-0.1,0-0.2  c-0.1-0.3,0-0.6,0.1-0.8c0.2-0.2,0.4-0.3,0.7-0.3L378.5,74.3z"/>
<path class="st0" d="M390.1,81.7c-0.7,0.9-1.5,1.7-2.4,2.4c-0.6,0.4-1.4,0.7-2.1,0.8c-0.9,0.2-1.8,0-2.5-0.4c-0.6-0.5-1-1.3-1.1-2.1  c-0.3-1.7,0.4-3.4,1.6-4.6c0.9-0.9,2.1-1.6,3.3-1.8c0.6-0.1,1.1,0,1.6,0.3c0.4,0.3,0.7,0.7,0.8,1.2c0.1,0.7-0.1,1.4-0.5,1.9  c-0.5,0.8-1.2,1.4-2,1.9c-0.8,0.5-1.7,0.8-2.7,1.1c0.1,0.3,0.2,0.6,0.5,0.8c0.3,0.2,0.7,0.2,1.1,0.1c0.6-0.1,1.2-0.4,1.7-0.8  c0.9-0.8,1.8-1.6,2.5-2.6L390.1,81.7z M383.9,80.8c1.1-0.3,2.1-0.8,2.9-1.5c0.3-0.3,0.5-0.7,0.5-1.1c0-0.2-0.1-0.4-0.2-0.5  c-0.1-0.1-0.3-0.2-0.5-0.1c-0.6,0.1-1.1,0.5-1.4,0.9C384.5,79.2,384.1,80,383.9,80.8z"/>
<path class="st0" d="M393.4,74.9c-0.1-0.7,0-1.4,0.2-2.1c0.1-0.3,0.4-0.5,0.8-0.6c0.3-0.1,0.5,0,0.8,0.2c0.2,0.2,0.4,0.5,0.4,0.8  c0,0.6-0.1,1.2-0.5,1.6l0.1,0.5l0.1,0.6l0.1,0.4l0.1,0.8c0.2,0.9,0.2,1.8,0.1,2.7c-0.2,0.7-0.4,1.4-0.9,2c1.2-0.9,2.3-2,3.2-3.2  l0.3,1.8c-0.6,0.8-1.3,1.5-2.1,2.1c-0.6,0.4-1.2,0.6-1.9,0.7c-0.3,0-0.5,0-0.8,0c-0.3,0.3-0.6,0.5-1,0.5c-0.4,0.1-0.8,0-1.2-0.3  c-0.3-0.2-0.5-0.5-0.6-0.8c0-0.1,0-0.2,0.1-0.3c0.1-0.1,0.3-0.2,0.5-0.2c0.3,0,0.5,0,0.8,0c0.3,0,0.5,0,0.8,0l0.3-0.1  c0.7-1.1,0.9-2.8,0.6-5c-0.9,1.8-2.2,3.4-3.6,4.8l-0.3-1.9c0.7-0.7,1.3-1.5,1.9-2.2C392.2,76.9,392.8,76,393.4,74.9z"/>
<path class="st0" d="M411.4,79.6l-0.3,0.3c-0.5,0.6-1,1.1-1.6,1.5c-0.4,0.3-0.9,0.4-1.4,0.5c-1.1,0.2-2.1-0.1-2.9-0.9  c-0.7-0.7-1.2-1.6-1.3-2.6c-0.4-2.5,0.2-5.4,1.6-8.4c1.6-3.4,3.7-5.4,6.2-5.7c0.9-0.2,1.8,0,2.6,0.4c0.6,0.4,1,1.1,1.1,1.9  c0.1,0.8,0,1.5-0.3,2.2c-0.3,0.8-0.9,1.5-1.5,2.1c-0.3,0.3-0.7,0.6-1.1,0.7c-0.1,0-0.1,0-0.2-0.1c-0.1-0.2-0.2-0.4-0.2-0.6  c0-0.3-0.1-0.8-0.1-1.5c0.4-0.3,0.8-0.7,1.1-1.1c0.2-0.3,0.3-0.7,0.2-1.1c0-0.3-0.2-0.6-0.5-0.8c-0.3-0.2-0.6-0.3-0.9-0.2  c-1.1,0.2-2,0.8-2.6,1.7c-1.3,1.7-2.3,3.6-2.8,5.7c-0.5,1.5-0.7,3-0.6,4.6c0,0.5,0.3,1,0.7,1.4c0.4,0.3,0.8,0.4,1.3,0.4  c0.8-0.1,1.5-0.5,2-1c1-1,1.8-2.1,2.4-3.3c0-0.8,0.2-1.6,0.6-2.2c0.2-0.3,0.5-0.6,0.9-0.6c0.2,0,0.5,0,0.7,0.2  c0.2,0.2,0.3,0.4,0.4,0.7c0,0.3,0,0.6-0.1,0.9c-0.2,0.5-0.5,1-0.8,1.4c-0.4,2.3-0.6,3.7-0.7,4.1c-0.3,1.3-0.7,2.7-1.2,3.9  c-0.3,0.9-0.8,1.8-1.3,2.7c-0.3,0.4-0.6,0.8-1,1.1c0-0.2,0-0.3,0-0.4v-0.5c0-0.3,0-0.6-0.1-0.8c0-0.1-0.1-0.3-0.1-0.4  c0-0.1-0.1-0.3-0.1-0.4c0-0.3,0.1-0.5,0.3-0.8C410.7,82.8,411.2,81.2,411.4,79.6z"/>
<path class="st0" d="M424.9,76.8c-0.7,0.9-1.5,1.7-2.4,2.4c-0.6,0.4-1.4,0.7-2.1,0.8c-0.9,0.2-1.8,0-2.5-0.4c-0.6-0.5-1-1.3-1.1-2.1  c-0.3-1.7,0.4-3.4,1.6-4.6c0.9-0.9,2.1-1.6,3.3-1.8c0.6-0.1,1.1,0,1.6,0.3c0.4,0.3,0.7,0.7,0.8,1.2c0.1,0.7-0.1,1.4-0.5,1.9  c-0.5,0.8-1.2,1.4-2,1.9c-0.8,0.5-1.7,0.8-2.7,1.1c0.1,0.3,0.2,0.6,0.5,0.8c0.3,0.2,0.7,0.2,1.1,0.1c0.6-0.1,1.2-0.4,1.7-0.8  c0.9-0.8,1.8-1.6,2.5-2.6L424.9,76.8z M418.7,75.9c1.1-0.3,2.1-0.8,2.9-1.5c0.3-0.3,0.5-0.7,0.5-1.1c0-0.2-0.1-0.4-0.2-0.5  c-0.1-0.1-0.3-0.2-0.5-0.1c-0.6,0.1-1.1,0.5-1.4,0.9C419.4,74.3,418.9,75.1,418.7,75.9L418.7,75.9z"/>
<path class="st0" d="M427.1,72.1l0.9-5.2v-0.2l0.2-0.9c0.2-1.5,0.5-3,1-4.4c0.1-0.2,0.3-0.4,0.5-0.4c0.2,0,0.5,0,0.6,0.2  c0.2,0.2,0.3,0.5,0.4,0.8c0,0.6,0,1.2-0.1,1.7c-0.2,1.3-0.4,2.6-0.8,3.9c-0.3,1.3-0.6,2.3-0.8,3.1c-0.2,0.8-0.4,1.9-0.6,3.4  l-0.1,0.7l-0.1,0.8l-1.2,6.8l-0.2,1c-0.1,0.2-0.1,0.4-0.1,0.7c0,0.1,0,0.2,0.1,0.3c0.1,0.1,0.1,0.1,0.2,0.1c0.1,0,0.2-0.1,0.3-0.2  c0.4-0.6,0.7-1.2,0.8-1.9c0.2-1.1,0.4-2.3,0.5-3.5c0.1-0.7,0-1.4-0.1-2.1c1-0.7,1.9-1.6,2.7-2.5l0.3,1.8c-0.4,0.4-0.9,0.9-1.5,1.4  c0.2,1.4,0.2,2.8,0,4.1c-0.2,1.3-0.7,2.5-1.5,3.5c-0.4,0.5-1,0.9-1.7,1c-0.4,0.1-0.8,0-1.1-0.3c-0.3-0.3-0.5-0.7-0.6-1.1  c-0.1-1,0-1.9,0.3-2.9l0.3-1.4l0.2-1c0.4-2.1,0.7-3.6,0.8-4.4l-2,2.2l-0.3-1.9L427.1,72.1z"/>
<path class="st0" d="M434.2,69.5l1.9-0.3c-0.6,2.1-1.1,3.8-1.6,5.2l-0.4,1c0,0.1-0.1,0.3-0.1,0.4l0.1,0.1c0.2-0.1,0.3-0.2,0.5-0.4  l2.3-2.4c0.5-0.6,1.1-1.3,1.5-1.9c0.6-0.8,1.1-1.6,1.5-2.5l2-0.3l-0.2,0.7l-0.1,0.4l-0.8,2.5l-0.1,0.2l-0.4,1.6  c-0.1,0.4-0.2,0.8-0.3,1.1c0,0,0,0.1,0.1,0.1c0.1,0,0.1,0,0.2,0c0.2,0,0.9-0.6,2-1.8l0.7-0.8l0.3,1.8l-0.4,0.4  c-0.7,0.8-1.4,1.4-2.2,2c-0.5,0.3-1,0.5-1.5,0.6c-0.3,0.1-0.6,0-0.9-0.1c-0.2-0.1-0.4-0.3-0.4-0.6c0-0.6,0.2-1.2,0.4-1.7  c0.2-0.6,0.4-1.2,0.5-2c-1,1.4-2.1,2.7-3.4,3.9c-0.7,0.7-1.6,1.2-2.6,1.5c-0.2,0-0.4,0-0.6-0.1c-0.2-0.1-0.3-0.2-0.3-0.4  c0-0.6,0.2-1.2,0.4-1.7l0.2-0.6c0.1-0.4,0.3-0.9,0.4-1.4c-0.5,0.8-1.1,1.6-1.8,2.3l-0.3-1.9c0.7-0.7,1.3-1.4,2-2.2l0.4-0.5  c0.2-0.2,0.3-0.5,0.5-0.8C434,70.4,434.1,69.9,434.2,69.5z M436.4,63c0.2,0,0.4,0,0.6,0.1c0.2,0.1,0.3,0.3,0.3,0.5  c0.1,0.4,0,0.8-0.3,1.1c-0.2,0.3-0.5,0.5-0.9,0.6c-0.2,0-0.4,0-0.6-0.1c-0.2-0.1-0.3-0.3-0.3-0.5c-0.1-0.4,0-0.8,0.3-1.1  C435.8,63.3,436.1,63.1,436.4,63L436.4,63z M439.6,62.6c0.2,0,0.5,0,0.6,0.1c0.2,0.1,0.3,0.4,0.3,0.6c0.1,0.4,0,0.8-0.2,1.1  c-0.2,0.3-0.5,0.5-0.8,0.6c-0.2,0-0.4,0-0.6-0.1c-0.2-0.1-0.3-0.3-0.3-0.6c-0.1-0.4,0-0.8,0.3-1.1C439,62.9,439.3,62.7,439.6,62.6  L439.6,62.6z"/>
<path class="st0" d="M445.3,69.7l1.8-7.4c0.2-1.2,0.6-2.3,1.1-3.4c0.2-0.2,0.4-0.4,0.7-0.5c0.2,0,0.4,0,0.5,0.1  c0.2,0.1,0.3,0.3,0.3,0.5c0.1,0.7,0,1.4-0.2,2.1c-0.2,0.9-0.7,2.5-1.5,5l-0.6,2l-0.4,1.3l-1.2,4l0.5-0.7c1.3-1.8,2.7-3.5,4.2-5  c0.5-0.6,1.1-1,1.8-1.2c0.2,0,0.4,0,0.5,0.1c0.2,0.1,0.3,0.3,0.3,0.5c0.1,0.4-0.4,1.9-1.2,4.7l-0.2,0.5c-0.1,0.2-0.1,0.4-0.1,0.6  c0,0.1,0,0.2,0.1,0.2c0,0,0.1,0.1,0.2,0.1c0.4-0.1,1.3-0.9,2.7-2.6l0.3,1.8c-0.8,0.9-1.6,1.7-2.6,2.4c-0.5,0.3-1,0.6-1.6,0.7  c-0.3,0.1-0.6,0-0.9-0.1c-0.2-0.1-0.4-0.4-0.4-0.6c0.1-1,0.4-1.9,0.8-2.9l0.2-0.7c0.2-0.5,0.4-1.1,0.5-1.6l-0.1-0.1  c-0.2,0-0.8,0.7-1.8,2l-0.5,0.7c-1,1.3-2,2.5-3.2,3.6c-0.2,0.3-0.5,0.5-0.9,0.6c-0.1,0-0.3,0-0.4-0.1c-0.1-0.1-0.2-0.2-0.2-0.4  c0-0.2,0-0.3,0-0.5l0.6-2.6l-1.3,1.4l-0.3-1.9c0.7-0.7,1.1-1.2,1.4-1.5C444.6,70.7,444.9,70.2,445.3,69.7z"/>
<path class="st0" d="M456.7,68.3l0.1-0.6l0.2-1.1l1.1-6.1c0.1-1.1,0.4-2.1,0.9-3.1c0.1-0.3,0.4-0.4,0.6-0.5c0.2,0,0.4,0,0.5,0.2  c0.2,0.2,0.3,0.5,0.4,0.8c0.1,0.8,0,1.7-0.1,2.5c-0.3,1.6-0.7,3.2-1.3,4.8c-0.1,0.2-0.2,0.7-0.3,1.5l-0.1,0.8l-0.8,4.4  c0,0.2,0,0.3,0,0.5c0,0.1,0,0.2,0.1,0.2c0.1,0,0.2,0.1,0.2,0c0.2,0,1-0.8,2.2-2.2l0.4-0.4l0.3,1.8c-0.7,0.9-1.6,1.7-2.4,2.4  c-0.5,0.3-1,0.5-1.5,0.6c-0.3,0.1-0.6,0-0.9-0.1c-0.2-0.2-0.4-0.4-0.4-0.7c0-0.4,0-0.8,0.1-1.2l0.1-0.5c0.1-0.3,0.1-0.7,0.1-1  c-0.5,0.6-0.9,1.1-1.5,1.6l-0.3-1.9c0.6-0.6,1-1,1.3-1.4C456.1,69.2,456.4,68.8,456.7,68.3z"/>
<path class="st0" d="M463.5,73.9c-0.3,0.1-0.6,0-0.9-0.2c-0.2-0.2-0.4-0.5-0.4-0.8c-0.1-0.5,0-1.1,0.3-1.5c0.3-0.4,0.7-0.7,1.1-0.8  c0.3-0.1,0.6,0,0.8,0.2c0.2,0.2,0.4,0.5,0.4,0.8c0.1,0.5,0,1-0.3,1.5C464.3,73.5,463.9,73.8,463.5,73.9z M465,59.9  c0-0.3,0.1-0.6,0.3-0.8c0.3-0.2,0.7-0.4,1-0.4c0.3-0.1,0.6-0.1,0.9,0c0.1,0,0.2,0.1,0.2,0.3c0,0.2,0,0.5-0.1,0.7  c-0.1,0.4-0.3,1.2-0.6,2.3l-0.2,0.8l-0.3,1.1l-0.2,0.9l-0.2,0.8l-0.7,2.6c-0.1,0.3-0.2,0.7-0.4,1c-0.2,0.1-0.4,0.2-0.6,0.2  c-0.2,0-0.4,0-0.6,0c-0.1,0-0.1-0.1-0.1-0.2c0-0.1,0-0.2,0-0.3l1.4-8.6L465,59.9z"/>
<path class="st0" d="M58.5,58.1c-11.3,11.5-29.9,11.7-41.4,0.3C5.5,47.1,5.4,28.6,16.7,17C28.1,5.5,46.6,5.4,58.1,16.7  c0.3,0.3,0.5,0.5,0.8,0.8h10.5C58.4,0,35.1-5.3,17.6,5.7C0,16.8-5.3,40,5.8,57.6S40,80.5,57.6,69.4c4.6-2.9,8.5-6.7,11.5-11.3H58.5"/>
<path class="st1" d="M39.8,29.6c0,6.7,8.4,8.8,16.7,12.2V22.2c-2.2-1.2-4.7-1.8-7.2-1.8C43.9,20.4,39.8,24.1,39.8,29.6"/>
<path class="st2" d="M31.2,35.5c0-8.7,5-13.9,11.1-16.2H18.7v37.4h37.4l0,0C46.5,52,31.2,49.8,31.2,35.5"/>
<path class="st0" d="M115.9,51.4c0.1,0.1,0.1,0.3,0.2,0.4c-0.1,0.2-0.2,0.3-0.4,0.3l-2.5,0.5c-0.2,0.1-0.5-0.1-0.6-0.3l-6.4-12.4  h-2.8v11.7c0,0.2-0.1,0.4-0.3,0.5c0,0-0.1,0-0.1,0h-2.2c-0.2,0-0.4-0.1-0.5-0.3c0,0,0-0.1,0-0.1V25.8c0-0.2,0.1-0.4,0.3-0.5  c0,0,0.1,0,0.1,0h6c3,0,7.9,0.2,7.9,7.1c0.1,3.3-2,6.2-5.2,7.2L115.9,51.4z M105.9,37.4c2.9,0,5.5-0.7,5.5-4.8c0-4.3-2.8-4.5-5-4.5  h-3v9.3L105.9,37.4L105.9,37.4z"/>
<path class="st0" d="M130.5,33.8c0-0.2,0.1-0.4,0.3-0.5l2-0.5c0.2,0,0.3-0.1,0.5-0.1c0.3,0,0.3,0.3,0.3,0.5v13.9  c-0.1,0.9,0.1,1.8,0.4,2.6c0.3,0.5,0.5,1,0.7,1.5c-0.1,0.2-0.2,0.3-0.4,0.3l-1.5,0.9c-0.1,0.1-0.2,0.1-0.3,0.1c-0.6,0-1-1.4-1.4-2.3  c-1.5,1.3-3.4,2.1-5.4,2.3c-5.3,0-5.7-3-5.7-5.9V33.8c0-0.2,0.1-0.4,0.3-0.5l2-0.5c0.2,0,0.3-0.1,0.5-0.1c0.3,0,0.3,0.3,0.3,0.5  v13.5c0,1.7,0.7,3.2,3.2,3.2c1.6-0.3,3.2-1,4.4-2V33.8L130.5,33.8z"/>
<path class="st0" d="M139.8,24.8c0-0.2,0.1-0.4,0.3-0.5l1.9-0.5c0.2,0,0.3-0.1,0.5-0.1c0.3,0,0.3,0.3,0.3,0.5v11.1  c1.7-1.6,3.8-2.5,6.1-2.6c4.3,0,4.6,3,4.6,5.9v12.9c0,0.2-0.1,0.4-0.3,0.5c0,0-0.1,0-0.1,0h-2c-0.2,0-0.4-0.1-0.5-0.3  c0,0,0-0.1,0-0.1v-13c0-1.7-0.4-3.2-2.5-3.2c-2,0.1-3.9,1-5.3,2.4v13.8c0,0.2-0.1,0.4-0.3,0.5c0,0-0.1,0-0.1,0h-2  c-0.2,0-0.4-0.1-0.5-0.3c0,0,0-0.1,0-0.1L139.8,24.8L139.8,24.8z"/>
<path class="st0" d="M172,50.3c0.1,0.1,0.1,0.2,0.1,0.3c0,0.4-3.3,2-6.2,2c-5.2,0-8.2-4-8.2-9.9c0-5.7,2.9-9.9,7.7-9.9  c6.5,0,7.1,6.3,7.1,9.7c0,0.5,0,0.9-0.4,0.9h-11.2c0,2.4,0.9,6.7,5.4,6.7c2.5,0,4.6-1.6,4.8-1.6c0.1,0,0.2,0.1,0.2,0.2L172,50.3z   M169.3,40.9c0-2-0.7-5.7-4.1-5.7c-3.6,0-4.4,3.7-4.4,5.7H169.3z"/>
<path class="st0" d="M186.2,35.9c0,0.2-0.2,0.4-0.5,0.5c-1.2-0.6-2.6-0.9-3.9-1c-1.6,0-2.9,0.8-2.9,2.6c0,4.3,8.7,3.1,8.7,9.2  c0,3.7-2.9,5.5-6.2,5.5c-1.9,0-5.9-1.1-5.9-1.9c0-0.2,0.1-0.3,0.2-0.5l0.6-1.2c0-0.2,0.2-0.3,0.4-0.4c0.4,0,2.4,1.4,5,1.4  c1.7,0,3.1-0.9,3.1-2.8c0-4.1-8.7-3.2-8.7-9c0-3.2,2.5-5.4,5.9-5.4c1.6,0.1,3.2,0.5,4.6,1.2c0.2,0.1,0.4,0.3,0.4,0.5  c0,0.1-0.1,0.3-0.2,0.4L186.2,35.9z"/>
<path class="st0" d="M196.6,51.6c0,0.2-0.1,0.4-0.3,0.5c0,0-0.1,0-0.1,0h-2c-0.2,0-0.4-0.1-0.5-0.3c0,0,0-0.1,0-0.1V35.8h-3  c-0.2,0-0.4-0.1-0.5-0.3c0,0,0-0.1,0-0.1v-1.5c0-0.2,0.1-0.4,0.3-0.5c0,0,0.1,0,0.1,0h5.5c0.3,0,0.5,0.1,0.5,0.4c0,0.1,0,0.1,0,0.2  L196.6,51.6L196.6,51.6z M195,28.9c-1.3,0-2.4-1.1-2.4-2.4s1.1-2.4,2.4-2.4c1.3,0,2.4,1.1,2.4,2.4C197.3,27.8,196.3,28.9,195,28.9  L195,28.9L195,28.9z"/>
<path class="st0" d="M213.7,50.6c0,0.1,0.1,0.3,0.1,0.4c0,0.5-2.9,1.6-5,1.6c-1.4,0.1-2.7-0.4-3.7-1.4c-1.1-1.2-1.1-3-1.1-4.4V35.8  H201c-0.3,0-0.3-0.3-0.3-0.5v-1.5c0-0.3,0-0.5,0.3-0.5h2.9V28c0-0.2,0.2-0.4,0.4-0.5l2.1-0.6c0.1,0,0.2,0,0.3,0s0.2,0.2,0.2,0.4v6  h5.8c0.2,0,0.4,0,0.4,0.3c0,0.1,0,0.2,0,0.3l-0.5,1.5c-0.1,0.2-0.3,0.3-0.5,0.4H207v11.1c0,1.6,0,3.2,2.3,3.2c1.8,0,3.4-1,3.7-1  c0.1,0,0.3,0.1,0.3,0.2L213.7,50.6z"/>
<path class="st0" d="M218.9,49.5h9.6c0.4,0,0.6,0,0.6,0.2c0,0.2-0.1,0.3-0.2,0.4l-0.7,1.6c-0.1,0.2-0.3,0.4-0.5,0.4h-12.2  c-0.4,0-0.4,0-0.4-0.5V50l9.8-14.2h-8.6c-0.2,0-0.4-0.1-0.5-0.3c0,0,0-0.1,0-0.1v-1.6c0-0.4,0.1-0.5,0.5-0.5h11.8  c0.4,0,0.5,0.1,0.5,0.5v1.6L218.9,49.5z"/>
<path class="st0" d="M268.9,52c0,0.4-0.3,0.7-0.7,0.7c0,0-0.1,0-0.1,0h-3.4c-0.7,0-0.7-0.1-0.9-0.7l-2.6-13.4  c-0.4-2.2-0.7-4.5-0.9-6.8h-0.1c-0.2,2.3-0.5,4.5-1,6.8L256.1,52c-0.1,0.6-0.2,0.7-0.9,0.7h-3.4c-0.4,0.1-0.8-0.2-0.8-0.6  c0,0,0-0.1,0-0.1l-4.6-22.9h-1.4c-0.6,0-0.7-0.1-0.7-0.7V26c0-0.5,0.2-0.7,0.7-0.7h5.1c0.5,0,0.6,0.1,0.7,0.6l2.3,12.5  c0.4,2.1,0.7,5.4,0.9,7.4h0.1c0.3-2.5,0.7-4.9,1.2-7.4l2.8-12.2c0.2-0.6,0.1-0.8,1.2-0.8h2.6c0.8,0,0.7,0.2,0.9,0.8l2.7,12.2  c0.4,2,0.9,5.1,1.1,7.4h0.1c0.2-2,0.5-5.2,0.9-7.4l2.3-12.5c0.1-0.5,0.2-0.6,0.7-0.6h4.9c0.5,0,0.7,0.1,0.7,0.7v2.4  c0,0.5-0.1,0.7-0.7,0.7h-1.4L268.9,52z"/>
<path class="st0" d="M281.5,43.8c0,2.2,0.6,4.9,4.3,4.9c2.8,0,4.4-1.3,5-1.3c0.2,0,0.4,0.1,0.4,0.3l1,2.3c0.1,0.1,0.1,0.3,0.1,0.4  c0,1-3.9,2.3-7,2.3c-5.1,0-8.7-2.9-8.7-10.1c0-6.2,3.3-10.5,8.5-10.5c6.6,0,7.8,5.9,7.8,10.6c0,0.7-0.2,1-0.9,1L281.5,43.8  L281.5,43.8z M287.6,40.1c0-1.6-0.1-4.4-2.8-4.4c-3,0-3.2,3.3-3.3,4.4H287.6L287.6,40.1z"/>
<path class="st0" d="M302.7,45.9c0,1.2,0,2.4,1.3,2.4c1.6,0,2.5-0.7,3.1-0.7c0.1,0,0.3,0.1,0.3,0.2l0.8,3.2c0,0.1,0.1,0.2,0.1,0.4  c0,0.7-2.9,1.4-5.5,1.4c-5,0-5-3.9-5-7.5v-8.8H295c-0.5,0-0.5-0.1-0.5-0.5v-2.5c0-0.4,0.1-0.5,0.5-0.5h2.8v-4.9  c0-0.5,0.1-0.6,0.6-0.7l3.4-0.5c0.1,0,0.3,0,0.5,0s0.4,0.2,0.4,0.7v5.5h4.5c0.4,0,0.7,0.1,0.7,0.4c0,0.1,0,0.3-0.1,0.4l-0.5,2.3  c0,0.3-0.3,0.6-0.6,0.6c0,0-0.1,0-0.1,0h-3.8L302.7,45.9L302.7,45.9z"/>
<path class="st0" d="M317.1,45.9c0,1.2,0,2.4,1.3,2.4c1.6,0,2.5-0.7,3.1-0.7c0.1,0,0.3,0.1,0.3,0.2l0.8,3.2c0,0.1,0.1,0.2,0.1,0.4  c0,0.7-2.9,1.4-5.5,1.4c-5,0-5-3.9-5-7.5v-8.8h-2.8c-0.5,0-0.5-0.1-0.5-0.5v-2.5c0-0.4,0.1-0.5,0.5-0.5h2.8v-4.9  c0-0.5,0.1-0.6,0.6-0.7l3.4-0.5c0.1,0,0.3,0,0.5,0s0.4,0.2,0.4,0.7v5.5h4.5c0.4,0,0.7,0.1,0.7,0.4c0,0.1,0,0.3-0.1,0.4l-0.5,2.3  c0,0.3-0.3,0.6-0.6,0.6c0,0-0.1,0-0.1,0h-3.8L317.1,45.9L317.1,45.9z"/>
<path class="st0" d="M329.8,43.8c0,2.2,0.6,4.9,4.3,4.9c2.8,0,4.4-1.3,5-1.3c0.2,0,0.4,0.1,0.4,0.3l1,2.3c0.1,0.1,0.1,0.3,0.1,0.4  c0,1-3.9,2.3-7,2.3c-5.1,0-8.7-2.9-8.7-10.1c0-6.2,3.3-10.5,8.5-10.5c6.6,0,7.8,5.9,7.8,10.6c0,0.7-0.2,1-0.9,1L329.8,43.8  L329.8,43.8z M336,40.1c0-1.6-0.1-4.4-2.8-4.4c-3,0-3.2,3.3-3.3,4.4H336L336,40.1z"/>
<path class="st0" d="M354.6,51.5c0,0.4-0.1,0.5-0.5,0.5h-9c-0.5,0-0.5-0.1-0.5-0.5V49c0-0.4,0.1-0.5,0.5-0.5h2v-8.7  c0-1.1-0.1-2.2-0.4-3.3h-1.9c-0.5,0-0.5-0.1-0.5-0.5v-2.5c0-0.4,0.1-0.5,0.5-0.5h5.1c1,0,1.2,1.4,1.4,2.4c0.7-0.9,2.2-3.1,4.8-3.1  c1.1,0,2.3,0.4,2.3,0.9c0,0.1,0,0.3-0.1,0.4l-1.2,3.3c0,0.2-0.2,0.3-0.3,0.4c-0.6-0.2-1.2-0.4-1.8-0.4c-1.2,0-2.5,1.3-3,1.9v10h2.1  c0.5,0,0.5,0.1,0.5,0.5L354.6,51.5L354.6,51.5z"/>
<path class="st0" d="M368.2,36c-0.5,0-1-0.1-1.5-0.1c-1.5,0-2.6,0.5-2.6,2c0,2.2,3.5,2,6.3,3.9c1.7,1,2.7,2.8,2.6,4.8  c0,3.6-2.5,6.3-6.7,6.3c-2.3,0-6.9-1-6.9-2.3v-4.2c-0.1-0.2,0.1-0.5,0.3-0.5c0.1,0,0.2,0,0.3,0h2.6c0.5,0,0.5,0.2,0.5,0.7v1.9  c0.9,0.3,1.8,0.5,2.8,0.5c1.3,0,2.4-0.5,2.4-2c0-2.3-3.8-2.3-6.4-4c-1.5-1-2.4-2.6-2.3-4.4c0-3.5,2.7-6.4,6.9-6.4  c2,0,5.4,0.5,5.4,1.8v4c0,0.4-0.1,0.5-0.5,0.5h-2.7c-0.2,0.1-0.5-0.1-0.5-0.3c0-0.1,0-0.2,0-0.3L368.2,36L368.2,36z"/>
<path class="st0" d="M382.8,45.9c0,1.2,0,2.4,1.3,2.4c1.6,0,2.5-0.7,3.1-0.7c0.1,0,0.3,0.1,0.3,0.2l0.8,3.2c0,0.1,0.1,0.2,0.1,0.4  c0,0.7-2.9,1.4-5.5,1.4c-5,0-5-3.9-5-7.5v-8.8h-2.8c-0.5,0-0.5-0.1-0.5-0.5v-2.5c0-0.4,0.1-0.5,0.5-0.5h2.8v-4.9  c0-0.5,0.1-0.6,0.6-0.7l3.4-0.5c0.1,0,0.3,0,0.5,0s0.4,0.2,0.4,0.7v5.5h4.5c0.4,0,0.7,0.1,0.7,0.4c0,0.1,0,0.3-0.1,0.4l-0.5,2.3  c0,0.3-0.3,0.6-0.6,0.6c0,0-0.1,0-0.1,0h-3.8L382.8,45.9L382.8,45.9z"/>
<path class="st0" d="M395.6,43.8c0,2.2,0.6,4.9,4.3,4.9c2.8,0,4.4-1.3,5-1.3c0.2,0,0.4,0.1,0.4,0.3l1,2.3c0.1,0.1,0.1,0.3,0.1,0.4  c0,1-3.9,2.3-7,2.3c-5.1,0-8.7-2.9-8.7-10.1c0-6.2,3.3-10.5,8.5-10.5c6.6,0,7.8,5.9,7.8,10.6c0,0.7-0.2,1-0.9,1L395.6,43.8  L395.6,43.8z M401.7,40.1c0-1.6-0.1-4.4-2.8-4.4c-3,0-3.2,3.3-3.3,4.4H401.7L401.7,40.1z"/>
<path class="st0" d="M420.5,51.5c0,0.4-0.1,0.5-0.5,0.5H410c-0.5,0-0.5-0.1-0.5-0.5V49c0-0.4,0.1-0.5,0.5-0.5h2.5v-12H410  c-0.5,0-0.5-0.1-0.5-0.5v-2.5c0-0.4,0.1-0.5,0.5-0.5h6.9c0.5,0,0.5,0.1,0.5,0.5v15.1h2.5c0.5,0,0.5,0.1,0.5,0.5L420.5,51.5  L420.5,51.5z M415,30.3c-1.8,0-3.2-1.4-3.2-3.2c0,0,0,0,0,0c0-1.8,1.5-3.2,3.2-3.2s3.2,1.5,3.2,3.2C418.2,28.8,416.7,30.3,415,30.3z  "/>
<path class="st0" d="M443.5,51.5c0,0.4-0.1,0.5-0.5,0.5h-6.4c-0.5,0-0.5-0.1-0.5-0.5v-12c0-1.5-0.2-3.3-2.2-3.3  c-1.3,0.1-2.5,0.7-3.4,1.6v10.6h2c0.5,0,0.5,0.1,0.5,0.5v2.5c0,0.4-0.1,0.5-0.5,0.5h-8.9c-0.5,0-0.5-0.1-0.5-0.5V49  c0-0.4,0.1-0.5,0.5-0.5h2v-8.7c0.1-1.1-0.1-2.2-0.4-3.3h-1.9c-0.5,0-0.5-0.2-0.5-0.5v-2.5c0-0.4,0.1-0.5,0.5-0.5h5.4  c0.9,0,1,1.2,1.2,2c1.6-1.7,3.7-2.6,6-2.7c4.1,0,5.1,2.8,5.1,6.2v10.1h2c0.5,0,0.5,0.1,0.5,0.5L443.5,51.5L443.5,51.5z"/>
<g>
	<path class="st0" d="M579.9,78.9c0,1.6-0.7,2.1-1.7,2.1c-0.5,0-0.9-0.1-1.3-0.2l-0.3,1.9c0.5,0.2,1.3,0.2,1.9,0.2c2.4,0,4-1,4-4   v-6.6h-2.5V78.9z"/>
	<path class="st0" d="M591.1,78.2c0-1.8-0.8-3.3-3.5-3.3c-1.5,0-2.6,0.4-3.1,0.7l0.5,1.5c0.5-0.3,1.4-0.6,2.2-0.6   c1.2,0,1.5,0.6,1.5,1v0.1c-2.9,0-4.8,0.9-4.8,2.9c0,1.2,1,2.3,2.6,2.3c1,0,1.8-0.3,2.3-0.9h0l0.1,0.8h2.3c-0.1-0.4-0.1-1.1-0.1-1.8   V78.2z M588.7,80c0,0.1,0,0.3,0,0.4c-0.2,0.5-0.7,0.9-1.3,0.9c-0.6,0-1-0.3-1-0.9c0-0.9,1-1.2,2.4-1.2V80z"/>
	<path class="st0" d="M597.9,75c-0.5,0-0.9,0.1-1.3,0.3c-0.4,0.2-0.7,0.4-1,0.8h0v-4.3h-2.5v11h2.5v-4.5c0-0.2,0-0.4,0.1-0.5   c0.2-0.4,0.6-0.8,1.3-0.8c0.9,0,1.3,0.7,1.3,1.7v4.1h2.5v-4.4C600.8,76,599.6,75,597.9,75z"/>
	<path class="st0" d="M605,76.6L605,76.6l-0.2-1.4h-2.2c0,0.6,0.1,1.4,0.1,2.5v5.1h2.5v-3.8c0-0.2,0-0.4,0-0.5   c0.2-0.7,0.8-1.2,1.7-1.2c0.3,0,0.5,0,0.7,0.1V75c-0.2,0-0.3,0-0.5,0C606.4,75,605.5,75.4,605,76.6z"/>
	<path class="st0" d="M616.2,78.7c0-1.9-1-3.8-3.6-3.8c-2.8,0-4.1,2.1-4.1,4c0,2.4,1.6,3.8,4.3,3.8c1.1,0,2.1-0.2,2.9-0.5l-0.3-1.6   c-0.7,0.2-1.4,0.3-2.2,0.3c-1.2,0-2.2-0.5-2.3-1.4h5.2C616.1,79.5,616.2,79.1,616.2,78.7z M610.9,78.1c0.1-0.6,0.5-1.5,1.6-1.5   c1.1,0,1.4,1,1.4,1.5H610.9z"/>
	<path class="st0" d="M544.8,43.8c-6.3,1.7-11.2,6.8-12.5,13.2c0,0,0-0.1,0.1-0.1c0.4-2,1.3-4,2.3-5.7v0   C537.1,47.6,540.6,44.9,544.8,43.8c1.4-0.4,2.9-0.6,4.5-0.6l0,0C547.8,43.2,546.3,43.4,544.8,43.8z"/>
	<path class="st0" d="M564,80.4c0-0.3,0.1-0.7,0.4-0.8l-0.7-0.9c-0.4,0-0.7-0.3-0.8-0.7c0-0.1,0-0.1,0-0.2l-0.9-1.1c0,0,0,0,0,0.1   c0.1,0.4-0.3,0.8-0.7,0.9c-0.4,0.1-0.9-0.3-0.9-0.7c-0.1-0.4,0.3-0.8,0.7-0.9c0.1,0,0.3,0,0.4,0.1l-0.9-1c-0.1,0.1-0.3,0.2-0.5,0.2   c-0.4,0.1-0.9-0.3-0.9-0.7c0,0,0,0,0-0.1c-0.2,0.1-0.4,0.2-0.5,0.4c0.3,0.1,0.5,0.3,0.5,0.6c0.1,0.4-0.3,0.8-0.7,0.9   c-0.4,0.1-0.8-0.2-0.9-0.7c0-0.1,0-0.1,0-0.2c-0.2,0.1-0.4,0.2-0.6,0.3c0.2,0.1,0.3,0.4,0.4,0.6c0.1,0.5-0.3,1-0.8,1.1   c-0.5,0.1-1-0.3-1.1-0.8c0-0.1,0-0.1,0-0.2c-0.3,0.1-0.5,0.2-0.8,0.3c0.2,0.1,0.3,0.4,0.4,0.6c0.1,0.5-0.3,1-0.8,1.1   c-0.5,0.1-1-0.3-1.1-0.8c0-0.2,0-0.3,0.1-0.5c-1.4,0.3-2.8,0.5-4.3,0.5c-5.5-0.1-10.3-2.7-13.4-6.8c-0.1-0.1-0.3-0.2-0.5-0.1   l-7.2,4.9c-0.2,0.1-0.2,0.3-0.1,0.5c4.7,5.8,11.9,9.6,20.1,10c0.4,0,0.9,0,1.3,0c1.8,0,3.5-0.2,5.2-0.5c-0.1-0.1-0.1-0.2-0.1-0.3   c0-0.3,0.2-0.6,0.5-0.6c0.3,0,0.6,0.2,0.6,0.5c0,0.1,0,0.1,0,0.2c0.3-0.1,0.6-0.1,1-0.2c-0.1-0.1-0.2-0.3-0.2-0.5   c-0.1-0.5,0.3-1,0.8-1.1c0.5-0.1,1,0.3,1.1,0.8c0,0.1,0,0.1,0,0.2c0.3-0.1,0.6-0.2,0.9-0.3c-0.2-0.1-0.4-0.4-0.4-0.7   c-0.1-0.5,0.3-1,0.8-1.1s1,0.3,1.1,0.8c0,0.1,0,0.2,0,0.3c0.3-0.1,0.6-0.3,0.9-0.4c-0.3-0.1-0.6-0.3-0.6-0.7   c-0.1-0.4,0.3-0.8,0.7-0.9c0.4-0.1,0.8,0.2,0.9,0.7c0,0.1,0,0.2,0,0.3c0.3-0.2,0.6-0.4,0.9-0.6c-0.4,0-0.8-0.3-0.8-0.7   c-0.1-0.4,0.3-0.8,0.7-0.9c0.4-0.1,0.9,0.3,0.9,0.7c0,0.1,0,0.3,0,0.4L565,81c0,0-0.1,0-0.1,0C564.5,81.1,564.1,80.8,564,80.4z    M552,78.8c-0.3,0-0.6-0.2-0.6-0.5s0.2-0.6,0.5-0.6s0.6,0.2,0.6,0.5S552.3,78.8,552,78.8z M553,81.2c-0.3,0-0.6-0.2-0.6-0.5   s0.2-0.6,0.5-0.6s0.6,0.2,0.6,0.5S553.3,81.1,553,81.2z M554,83.6c-0.3,0-0.6-0.2-0.6-0.5c0-0.3,0.2-0.6,0.5-0.6   c0.3,0,0.6,0.2,0.6,0.5C554.5,83.3,554.3,83.5,554,83.6z M554.3,80.1c-0.1-0.5,0.3-1,0.8-1.1s1,0.3,1.1,0.8c0.1,0.5-0.3,1-0.8,1.1   S554.3,80.6,554.3,80.1z M556.3,83.3c-0.5,0.1-1-0.3-1.1-0.8c-0.1-0.5,0.3-1,0.8-1.1c0.5-0.1,1,0.3,1.1,0.8S556.8,83.2,556.3,83.3z    M556.6,79.1c-0.1-0.5,0.3-1,0.8-1.1c0.5-0.1,1,0.3,1.1,0.8c0.1,0.5-0.3,1-0.8,1.1S556.7,79.6,556.6,79.1z M558.6,82.3   c-0.5,0.1-1-0.3-1.1-0.8c-0.1-0.5,0.3-1,0.8-1.1c0.5-0.1,1,0.3,1.1,0.8C559.5,81.7,559.2,82.2,558.6,82.3z M558.7,78.1   c-0.1-0.4,0.3-0.8,0.7-0.9c0.4-0.1,0.8,0.2,0.9,0.7c0.1,0.4-0.3,0.8-0.7,0.9C559.2,78.8,558.8,78.5,558.7,78.1z M560.6,81.2   c-0.4,0.1-0.8-0.2-0.9-0.7c-0.1-0.4,0.3-0.8,0.7-0.9c0.4-0.1,0.8,0.2,0.9,0.7C561.3,80.7,561,81.1,560.6,81.2z M562.2,80   c-0.4,0.1-0.9-0.3-0.9-0.7c-0.1-0.4,0.3-0.8,0.7-0.9c0.4-0.1,0.9,0.3,0.9,0.7C562.9,79.6,562.6,80,562.2,80z"/>
	<path class="st0" d="M585.2,11.2c-0.1,0-0.2,0-0.2,0.1c0.1,0,0.2,0,0.4-0.1C585.3,11.2,585.2,11.2,585.2,11.2z"/>
	
		<ellipse transform="matrix(0.9988 -4.967729e-02 4.967729e-02 0.9988 -0.4399 28.2729)" class="st0" cx="568.6" cy="23" rx="0.6" ry="0.6"/>
	<path class="st0" d="M569.7,22c0.4,0,0.8-0.4,0.7-0.8c0-0.4-0.4-0.7-0.8-0.7s-0.8,0.4-0.7,0.8C568.9,21.7,569.3,22,569.7,22z"/>
	<path class="st0" d="M570.9,20.2c0.4,0,0.8-0.4,0.7-0.8c0-0.4-0.4-0.7-0.8-0.7c-0.4,0-0.8,0.4-0.7,0.8   C570.2,19.9,570.5,20.2,570.9,20.2z"/>
	<path class="st0" d="M566.9,28.7c0.1,0,0.2-0.1,0.2-0.2c0-0.1-0.1-0.2-0.2-0.2c-0.1,0-0.2,0.1-0.2,0.2   C566.7,28.6,566.8,28.7,566.9,28.7z"/>
	<path class="st0" d="M566.8,30.3c0.1,0,0.2-0.1,0.2-0.2c0-0.1-0.1-0.2-0.2-0.2c-0.1,0-0.2,0.1-0.2,0.2   C566.6,30.2,566.7,30.3,566.8,30.3z"/>
	<path class="st0" d="M567.3,27c0.2,0,0.3-0.2,0.3-0.4c0-0.2-0.2-0.3-0.4-0.3c-0.2,0-0.3,0.2-0.3,0.4C566.9,26.9,567.1,27,567.3,27z   "/>
	<path class="st0" d="M567.8,25.2c0.2,0,0.3-0.2,0.3-0.4c0-0.2-0.2-0.3-0.4-0.3c-0.2,0-0.3,0.2-0.3,0.4   C567.5,25.1,567.6,25.2,567.8,25.2z"/>
	<path class="st0" d="M573.5,19.9c-0.5,0-0.8,0.4-0.8,0.9c0,0.5,0.4,0.8,0.9,0.8c0.5,0,0.8-0.4,0.8-0.9   C574.4,20.2,574,19.8,573.5,19.9z"/>
	
		<ellipse transform="matrix(0.9988 -4.974673e-02 4.974673e-02 0.9988 -0.5687 28.3589)" class="st0" cx="569.4" cy="25.6" rx="0.6" ry="0.6"/>
	<path class="st0" d="M570.5,23.1c-0.4,0-0.8,0.4-0.7,0.8c0,0.4,0.4,0.7,0.8,0.7c0.4,0,0.8-0.4,0.7-0.8   C571.3,23.4,570.9,23.1,570.5,23.1z"/>
	<path class="st0" d="M571.7,21.3c-0.4,0-0.8,0.4-0.7,0.8c0,0.4,0.4,0.7,0.8,0.7c0.4,0,0.8-0.4,0.7-0.8   C572.5,21.6,572.2,21.3,571.7,21.3z"/>
	<path class="st0" d="M567.7,30.9c-0.1,0-0.2,0.1-0.2,0.2c0,0.1,0.1,0.2,0.2,0.2s0.2-0.1,0.2-0.2C568,30.9,567.9,30.8,567.7,30.9z"/>
	<path class="st0" d="M568.5,29.3c0-0.2-0.2-0.3-0.4-0.3c-0.2,0-0.3,0.2-0.3,0.4c0,0.2,0.2,0.3,0.4,0.3   C568.3,29.6,568.5,29.5,568.5,29.3z"/>
	<path class="st0" d="M569,27.5c0-0.2-0.2-0.3-0.4-0.3c-0.2,0-0.3,0.2-0.3,0.4c0,0.2,0.2,0.3,0.4,0.3C568.9,27.8,569,27.7,569,27.5z   "/>
	<path class="st0" d="M574.3,22.5c-0.5,0-0.8,0.4-0.8,0.9c0,0.5,0.4,0.8,0.9,0.8c0.5,0,0.8-0.4,0.8-0.9   C575.2,22.8,574.8,22.5,574.3,22.5z"/>
	<path class="st0" d="M588.2,10.9c-1,0.1-1.9,0.2-2.9,0.3c0.3,0,0.5,0.3,0.5,0.6c0,0.3-0.2,0.6-0.6,0.6c-0.3,0-0.6-0.2-0.6-0.6   c0-0.2,0.1-0.5,0.3-0.6c-0.5,0.1-1,0.2-1.5,0.3c0.2,0.2,0.3,0.4,0.3,0.7c0,0.6-0.4,1-1,1.1c-0.6,0-1-0.4-1.1-1c0-0.1,0-0.2,0-0.4   c-0.4,0.1-0.7,0.2-1.1,0.3c0.3,0.2,0.5,0.5,0.5,0.8c0,0.6-0.4,1-1,1.1c-0.6,0-1-0.4-1.1-1c0-0.1,0-0.2,0-0.3   c-0.3,0.1-0.6,0.2-0.8,0.4c0.3,0.1,0.5,0.4,0.5,0.7c0,0.5-0.3,0.8-0.8,0.9c-0.5,0-0.8-0.3-0.9-0.8c0-0.1,0-0.2,0-0.2   c-0.3,0.1-0.5,0.3-0.8,0.4c0.4,0.1,0.7,0.4,0.7,0.8c0,0.5-0.3,0.9-0.8,0.9c-0.5,0-0.9-0.3-0.9-0.8c0-0.1,0-0.2,0-0.3   c-0.4,0.2-0.7,0.5-1.1,0.7c0.5,0,0.9,0.3,0.9,0.8c0,0.5-0.3,0.9-0.8,0.9c-0.5,0-0.9-0.3-0.9-0.8c0-0.1,0-0.2,0-0.3   c-0.5,0.4-0.9,0.7-1.4,1.1c0.1-0.1,0.2-0.1,0.4-0.1c0.5,0,0.9,0.3,0.9,0.8c0,0.2,0,0.3-0.1,0.5l1.1,0.9c0-0.1-0.1-0.2-0.1-0.3   c0-0.5,0.3-0.9,0.8-0.9c0.5,0,0.9,0.3,0.9,0.8c0,0.5-0.3,0.9-0.8,0.9c-0.1,0-0.2,0-0.2,0l1.1,0.9c0,0,0,0-0.1,0   c-0.5,0-0.8,0.4-0.8,0.9c0,0.5,0.4,0.8,0.9,0.8c0.5,0,0.8-0.4,0.8-0.9c0,0,0-0.1,0-0.1l1.2,1c0.1-0.2,0.4-0.4,0.7-0.4   c0.5,0,0.9,0.3,0.9,0.8c0,0.2,0,0.4-0.1,0.5c0.3-0.3,0.7-0.5,1.1-0.7c-0.4,0-0.8-0.3-0.8-0.8c0-0.5,0.3-0.8,0.8-0.9   c0.5,0,0.8,0.3,0.9,0.8c0,0.1,0,0.3-0.1,0.4c0.3-0.1,0.5-0.3,0.8-0.4c-0.2-0.2-0.4-0.4-0.4-0.7c0-0.6,0.4-1,1-1.1s1,0.4,1.1,1   c0,0,0,0.1,0,0.1c0.3-0.1,0.5-0.2,0.8-0.3c-0.1-0.2-0.2-0.4-0.3-0.6c0-0.6,0.4-1,1-1.1s1,0.4,1.1,1c0,0.1,0,0.2,0,0.2   c0.4-0.1,0.8-0.2,1.2-0.2c-0.2-0.1-0.3-0.3-0.3-0.5c0-0.3,0.2-0.6,0.6-0.6c0.3,0,0.6,0.2,0.6,0.6c0,0.2-0.1,0.3-0.2,0.5   c0.6-0.1,1.2-0.1,1.8-0.1c6.6,0,12.4,3.9,15.3,9.5c0,0,0,0,0,0c1.2,2.3,1.9,5,1.9,7.8c0,7.1-4.2,13.1-10.3,15.8   c-0.9,0.4-1.8,0.7-2.7,1c-1.5,0.4-3,0.6-4.6,0.6c-5.6,0-10.6-2.2-14.2-6.4c0,0-7.2-8.7-11.3-11c-4-2.3-8.9-3.3-14-3.3   c-1.2,0-2.4,0.1-3.5,0.2c0,0-0.1,0-0.1,0c-0.1,0-0.3,0-0.4,0c-0.1,0-0.2,0-0.2,0c-0.1,0-0.3,0-0.4,0c-0.1,0-0.2,0-0.2,0   c-0.1,0-0.3,0-0.4,0.1c-0.1,0-0.2,0-0.2,0c-0.1,0-0.3,0-0.4,0.1c-0.1,0-0.2,0-0.2,0c-0.4,0.1-0.9,0.2-1.3,0.3c-0.1,0-0.2,0-0.3,0.1   c-0.1,0-0.2,0.1-0.3,0.1c-0.1,0-0.2,0.1-0.3,0.1c-0.1,0-0.2,0.1-0.3,0.1c-0.1,0-0.2,0.1-0.3,0.1c-0.1,0-0.2,0.1-0.3,0.1   c-0.1,0-0.2,0.1-0.3,0.1c-0.1,0-0.2,0.1-0.3,0.1c-0.1,0-0.2,0.1-0.4,0.1c-0.1,0-0.2,0.1-0.2,0.1c-0.1,0-0.3,0.1-0.4,0.1   c-0.1,0-0.1,0.1-0.2,0.1c-0.2,0.1-0.4,0.2-0.6,0.2c-0.2,0.1-0.5-0.1-0.5-0.4l0.3-1.2l2-9.3c0-0.2,0.2-0.3,0.3-0.3h16.5   c0.1,0,0.2-0.1,0.3-0.2l4-8.3c0.1-0.2-0.1-0.5-0.3-0.5h-30.3c-0.2,0-0.3,0.1-0.3,0.3l-1.9,8.7l-2.9,13.6l-2.5,11.7l-1.4,6.4   c0,0.2,0.1,0.4,0.3,0.4h9.8c0.1,0,0.2-0.1,0.3-0.1c1.3-6.4,6.2-11.6,12.5-13.2c1.4-0.4,2.9-0.6,4.5-0.6l0,0c0,0,0,0,0,0   c8.1,0,13,5.9,15.1,8.5c0,0,8.9,12.3,25.1,12.3c14.2,0,25.8-11.1,26.5-25.1C616.9,23.2,603.9,10.1,588.2,10.9z M583.6,14   c0.6,0,1,0.4,1.1,1c0,0.6-0.4,1-1,1.1c-0.6,0-1-0.4-1.1-1C582.6,14.5,583,14,583.6,14z M576.3,17.9c0-0.5,0.3-0.9,0.8-0.9   c0.5,0,0.9,0.3,0.9,0.8c0,0.5-0.3,0.9-0.8,0.9C576.7,18.7,576.3,18.3,576.3,17.9z M578.1,21.3c-0.5,0-0.9-0.3-0.9-0.8   c0-0.5,0.3-0.9,0.8-0.9c0.5,0,0.9,0.3,0.9,0.8C578.9,20.9,578.5,21.3,578.1,21.3z M578.1,16.8c0-0.5,0.3-0.8,0.8-0.9   c0.5,0,0.8,0.3,0.9,0.8s-0.3,0.8-0.8,0.9C578.5,17.6,578.1,17.2,578.1,16.8z M579.9,20.2c-0.5,0-0.8-0.3-0.9-0.8s0.3-0.8,0.8-0.9   c0.5,0,0.8,0.3,0.9,0.8C580.7,19.8,580.3,20.1,579.9,20.2z M580.1,15.9c0-0.6,0.4-1,1-1.1s1,0.4,1.1,1c0,0.6-0.4,1-1,1.1   S580.1,16.5,580.1,15.9z M582,19.5c-0.6,0-1-0.4-1.1-1c0-0.6,0.4-1,1-1.1s1,0.4,1.1,1C583,19,582.6,19.5,582,19.5z M584.6,18.6   c-0.6,0-1-0.4-1.1-1c0-0.6,0.4-1,1-1.1c0.6,0,1,0.4,1.1,1C585.6,18.1,585.1,18.6,584.6,18.6z M586.1,15c-0.3,0-0.6-0.2-0.6-0.6   c0-0.3,0.2-0.6,0.6-0.6s0.6,0.2,0.6,0.6C586.7,14.7,586.5,15,586.1,15z M587,17.7c-0.3,0-0.6-0.2-0.6-0.6c0-0.3,0.2-0.6,0.6-0.6   c0.3,0,0.6,0.2,0.6,0.6C587.6,17.4,587.3,17.6,587,17.7z"/>
	
		<ellipse transform="matrix(0.9988 -4.967729e-02 4.967729e-02 0.9988 -0.6978 28.3656)" class="st0" cx="570.3" cy="28.2" rx="0.6" ry="0.6"/>
	<path class="st0" d="M570.6,26.5c0,0.4,0.4,0.7,0.8,0.7c0.4,0,0.8-0.4,0.7-0.8s-0.4-0.7-0.8-0.7C570.9,25.7,570.6,26.1,570.6,26.5z   "/>
	<path class="st0" d="M571.9,24.7c0,0.4,0.4,0.7,0.8,0.7c0.4,0,0.8-0.4,0.7-0.8c0-0.4-0.4-0.7-0.8-0.7   C572.2,23.9,571.9,24.3,571.9,24.7z"/>
	<path class="st0" d="M569,32.3c0.2,0,0.3-0.2,0.3-0.4c0-0.2-0.2-0.3-0.4-0.3c-0.2,0-0.3,0.2-0.3,0.4   C568.7,32.1,568.8,32.3,569,32.3z"/>
	<path class="st0" d="M569.9,30.1c0-0.2-0.2-0.3-0.4-0.3s-0.3,0.2-0.3,0.4c0,0.2,0.2,0.3,0.4,0.3C569.8,30.4,569.9,30.3,569.9,30.1z   "/>
	
		<ellipse transform="matrix(0.9987 -5.003180e-02 5.003180e-02 0.9987 -0.5785 28.8135)" class="st0" cx="575.3" cy="26" rx="0.9" ry="0.9"/>
	
		<ellipse transform="matrix(0.9987 -5.005654e-02 5.005654e-02 0.9987 -0.4974 28.9137)" class="st0" cx="577" cy="24.4" rx="0.9" ry="0.9"/>
	
		<ellipse transform="matrix(0.9988 -4.967729e-02 4.967729e-02 0.9988 -0.8268 28.4119)" class="st0" cx="571.2" cy="30.8" rx="0.6" ry="0.6"/>
	<path class="st0" d="M572.3,29.9c0.4,0,0.8-0.4,0.7-0.8s-0.4-0.7-0.8-0.7c-0.4,0-0.8,0.4-0.7,0.8C571.5,29.6,571.9,29.9,572.3,29.9   z"/>
	<path class="st0" d="M574.3,27.2c0-0.4-0.4-0.7-0.8-0.7c-0.4,0-0.8,0.4-0.7,0.8c0,0.4,0.4,0.7,0.8,0.7   C574,28,574.3,27.7,574.3,27.2z"/>
	<path class="st0" d="M566.2,77.9c-0.4,0.1-0.8,0.5-0.7,0.9c0.1,0.4,0.5,0.8,0.9,0.7c0.4-0.1,0.8-0.5,0.7-0.9   C567,78.1,566.6,77.8,566.2,77.9z"/>
	<path class="st0" d="M569.7,73.3c-0.3,0-0.5,0.3-0.5,0.6s0.3,0.5,0.6,0.5c0.3,0,0.5-0.3,0.5-0.6C570.3,73.5,570,73.2,569.7,73.3z"/>
	<path class="st0" d="M568.8,74.8c-0.4,0-0.7,0.4-0.6,0.8c0,0.4,0.4,0.7,0.8,0.6c0.4,0,0.7-0.4,0.6-0.8   C569.5,75,569.2,74.8,568.8,74.8z"/>
	<path class="st0" d="M567.7,76.6c-0.4,0-0.7,0.4-0.6,0.8c0,0.4,0.4,0.7,0.8,0.6c0.4,0,0.7-0.4,0.6-0.8   C568.5,76.8,568.1,76.5,567.7,76.6z"/>
	<path class="st0" d="M570.9,68.4c-0.1,0-0.2,0.1-0.2,0.2c0,0.1,0.1,0.2,0.2,0.2c0.1,0,0.2-0.1,0.2-0.2   C571.2,68.5,571,68.4,570.9,68.4z"/>
	<path class="st0" d="M571,67.3c0.1,0,0.2-0.1,0.2-0.2s-0.1-0.2-0.2-0.2c-0.1,0-0.2,0.1-0.2,0.2C570.8,67.2,570.9,67.3,571,67.3z"/>
	<path class="st0" d="M570.7,70c-0.2,0-0.3,0.2-0.3,0.4s0.2,0.3,0.4,0.3c0.2,0,0.3-0.2,0.3-0.4S570.9,69.9,570.7,70z"/>
	<path class="st0" d="M570.3,71.7c-0.2,0-0.3,0.2-0.3,0.4c0,0.2,0.2,0.3,0.4,0.3c0.2,0,0.3-0.2,0.3-0.4   C570.6,71.8,570.5,71.7,570.3,71.7z"/>
	<path class="st0" d="M565.2,75.5c-0.4,0.1-0.8,0.5-0.7,0.9c0.1,0.4,0.5,0.8,0.9,0.7c0.4-0.1,0.8-0.5,0.7-0.9   C566,75.7,565.6,75.4,565.2,75.5z"/>
	<path class="st0" d="M563.8,78.7c0.4-0.1,0.8-0.5,0.7-0.9c-0.1-0.4-0.5-0.8-0.9-0.7c-0.4,0-0.7,0.3-0.7,0.7l0.8,0.9   C563.8,78.7,563.8,78.7,563.8,78.7z"/>
	<path class="st0" d="M562.9,78c0,0.4,0.4,0.7,0.8,0.7l-0.8-0.9C562.9,77.8,562.9,77.9,562.9,78z"/>
	<path class="st0" d="M568.8,72c0.3,0,0.5-0.3,0.5-0.6s-0.3-0.5-0.6-0.5c-0.3,0-0.5,0.3-0.5,0.6C568.3,71.8,568.5,72,568.8,72z"/>
	<path class="st0" d="M568,73.9c0.4,0,0.7-0.4,0.6-0.8c0-0.4-0.4-0.7-0.8-0.6c-0.4,0-0.7,0.4-0.6,0.8   C567.2,73.6,567.6,73.9,568,73.9z"/>
	<path class="st0" d="M566.9,75.6c0.4,0,0.7-0.4,0.6-0.8c0-0.4-0.4-0.7-0.8-0.6c-0.4,0-0.7,0.4-0.6,0.8   C566.2,75.4,566.5,75.7,566.9,75.6z"/>
	<path class="st0" d="M570,66.4c0.1,0,0.2-0.1,0.2-0.2c0-0.1-0.1-0.2-0.2-0.2c-0.1,0-0.2,0.1-0.2,0.2   C569.8,66.3,569.9,66.4,570,66.4z"/>
	<ellipse transform="matrix(0.9924 -0.1232 0.1232 0.9924 -4.0241 70.6788)" class="st0" cx="569.7" cy="67.9" rx="0.3" ry="0.3"/>
	<ellipse transform="matrix(0.9924 -0.1231 0.1231 0.9924 -4.2386 70.6018)" class="st0" cx="569.3" cy="69.6" rx="0.3" ry="0.3"/>
	<path class="st0" d="M563.5,74c0.1,0.4,0.5,0.8,0.9,0.7c0.4-0.1,0.8-0.5,0.7-0.9c-0.1-0.4-0.5-0.8-0.9-0.7   C563.7,73.1,563.4,73.5,563.5,74z"/>
	<path class="st0" d="M562.7,74.7c-0.4,0.1-0.8,0.5-0.7,0.9c0.1,0.4,0.5,0.8,0.9,0.7c0.4-0.1,0.8-0.5,0.7-0.9S563.1,74.6,562.7,74.7   z"/>
	<path class="st0" d="M562,76.6"/>
	<path class="st0" d="M561.5,76.1"/>
	<ellipse transform="matrix(0.9925 -0.1226 0.1226 0.9925 -4.1815 70.1086)" class="st0" cx="567.8" cy="69" rx="0.6" ry="0.5"/>
	<path class="st0" d="M567,71.5c0.4,0,0.7-0.4,0.6-0.8c0-0.4-0.4-0.7-0.8-0.6c-0.4,0-0.7,0.4-0.6,0.8   C566.2,71.2,566.6,71.5,567,71.5z"/>
	<path class="st0" d="M566.5,72.4c0-0.4-0.4-0.7-0.8-0.6c-0.4,0-0.7,0.4-0.6,0.8c0,0.4,0.4,0.7,0.8,0.6   C566.3,73.2,566.6,72.8,566.5,72.4z"/>
	<path class="st0" d="M568.7,65.2c-0.2,0-0.3,0.2-0.3,0.4c0,0.2,0.2,0.3,0.4,0.3s0.3-0.2,0.3-0.4C569,65.3,568.9,65.2,568.7,65.2z"/>
	<path class="st0" d="M568.3,66.9c-0.2,0-0.3,0.2-0.3,0.4c0,0.2,0.2,0.3,0.4,0.3c0.2,0,0.3-0.2,0.3-0.4   C568.6,67,568.5,66.9,568.3,66.9z"/>
	<path class="st0" d="M563.2,70.7c-0.4,0.1-0.8,0.5-0.7,0.9c0.1,0.4,0.5,0.8,0.9,0.7c0.4-0.1,0.8-0.5,0.7-0.9   C564,71,563.6,70.6,563.2,70.7z"/>
	<path class="st0" d="M561.7,72.3c-0.4,0.1-0.8,0.5-0.7,0.9c0.1,0.4,0.5,0.8,0.9,0.7c0.4-0.1,0.8-0.5,0.7-0.9   C562.5,72.6,562.1,72.2,561.7,72.3z"/>
	<path class="st0" d="M566.7,66.1c-0.3,0-0.5,0.3-0.5,0.6s0.3,0.5,0.6,0.5c0.3,0,0.5-0.3,0.5-0.6C567.3,66.3,567,66.1,566.7,66.1z"/>
	<path class="st0" d="M565.8,67.6c-0.4,0-0.7,0.4-0.6,0.8s0.4,0.7,0.8,0.6c0.4,0,0.7-0.4,0.6-0.8C566.6,67.9,566.2,67.6,565.8,67.6z   "/>
	<path class="st0" d="M564.7,69.4c-0.4,0-0.7,0.4-0.6,0.8c0,0.4,0.4,0.7,0.8,0.6c0.4,0,0.7-0.4,0.6-0.8   C565.5,69.7,565.1,69.4,564.7,69.4z"/>
	<path class="st0" d="M570.4,33.1c0.2,0,0.3-0.2,0.3-0.4c0-0.2-0.2-0.3-0.4-0.3c-0.2,0-0.3,0.2-0.3,0.4   C570.1,32.9,570.2,33.1,570.4,33.1z"/>
	<path class="st0" d="M567.3,64.5c-0.2,0-0.3,0.2-0.3,0.4c0,0.2,0.2,0.3,0.4,0.3s0.3-0.2,0.3-0.4C567.7,64.6,567.5,64.5,567.3,64.5z   "/>
</g>
</svg></svg>
